<svg xmlns="http://www.w3.org/2000/svg" width="25" height="25" enable-background="new" viewBox="0 0 6.615 6.615"><path d="m 55.001953,455.00195 c -0.822498,0 -1.49999,0.6775 -1.5,1.5 v 11.99414 c 1e-5,0.8225 0.677502,1.50586 1.5,1.50586 h 2 c 0.822498,0 1.498037,-0.68336 1.498047,-1.50586 v -11.99414 c -1e-5,-0.8225 -0.675549,-1.5 -1.498047,-1.5 z m 14.914063,0.92774 c -0.266932,0.009 -0.536757,0.0919 -0.779297,0.26172 l -7.25586,5.07812 c -0.840192,0.5881 -0.840192,1.87089 0,2.45899 l 7.25586,5.07812 c 0.97016,0.67911 2.363258,-0.0404 2.363281,-1.22461 v -10.1582 c -1.7e-5,-0.88829 -0.783191,-1.52052 -1.583984,-1.49414 z" color="#000" font-family="sans-serif" font-weight="400" overflow="visible" transform="translate(-13.23 -119.063) scale(.26458)" style="line-height:normal;font-variant-ligatures:normal;font-variant-position:normal;font-variant-caps:normal;font-variant-numeric:normal;font-variant-alternates:normal;font-feature-settings:normal;text-indent:0;text-align:start;text-decoration-line:none;text-decoration-style:solid;text-decoration-color:#000;text-transform:none;text-orientation:mixed;shape-padding:0;isolation:auto;mix-blend-mode:normal"/></svg>